<?xml version="1.0" encoding="UTF-8"?>
<svg xmlns="http://www.w3.org/2000/svg" xmlns:xlink="http://www.w3.org/1999/xlink" viewBox="0 0 128 128" width="128px" height="128px">
<g id="surface10879340">
<path style=" stroke:none;fill-rule:nonzero;fill:rgb(100%,100%,100%);fill-opacity:1;" d="M 60 12 L 60 32 L 68 32 L 68 12 Z M 30 24.375 L 24.375 30 L 38.5 44.25 L 44.25 38.5 Z M 98 24.375 L 83.75 38.5 L 89.5 44.25 L 103.625 30 Z M 64 36 C 48.578125 36 36 48.578125 36 64 C 36 79.421875 48.578125 92 64 92 C 79.421875 92 92 79.421875 92 64 C 92 48.578125 79.421875 36 64 36 Z M 64 44 C 75.09375 44 84 52.90625 84 64 C 84 75.09375 75.09375 84 64 84 C 52.90625 84 44 75.09375 44 64 C 44 52.90625 52.90625 44 64 44 Z M 12 60 L 12 68 L 32 68 L 32 60 Z M 96 60 L 96 68 L 116 68 L 116 60 Z M 38.5 83.75 L 24.375 98 L 30 103.625 L 44.25 89.5 Z M 89.5 83.75 L 83.75 89.5 L 98 103.625 L 103.625 98 Z M 60 96 L 60 116 L 68 116 L 68 96 Z M 60 96 "/>
</g>
</svg>
