<?xml version="1.0" encoding="UTF-8"?>
<svg xmlns="http://www.w3.org/2000/svg" xmlns:xlink="http://www.w3.org/1999/xlink" viewBox="0 0 160 160" width="160px" height="160px">
<g id="surface16879116">
<path style=" stroke:none;fill-rule:nonzero;fill:rgb(19.607843%,79.607844%,94.509804%);fill-opacity:1;" d="M 84 96.601562 L 35.429688 145.171875 L 18.828125 128.570312 L 67.398438 80 L 18.828125 31.429688 L 35.429688 14.828125 L 84 63.398438 L 132.570312 14.828125 L 149.171875 31.429688 L 100.601562 80 L 149.171875 128.570312 L 132.570312 145.171875 Z M 84 96.601562 "/>
<path style=" stroke:none;fill-rule:nonzero;fill:rgb(9.019608%,9.019608%,9.019608%);fill-opacity:1;" d="M 132.570312 17.65625 L 146.34375 31.429688 L 97.773438 80 L 146.34375 128.570312 L 132.570312 142.34375 L 84 93.773438 L 35.429688 142.34375 L 21.65625 128.570312 L 70.226562 80 L 21.65625 31.429688 L 35.429688 17.65625 L 84 66.226562 L 132.570312 17.65625 M 132.570312 12 L 84 60.570312 L 35.429688 12 L 16 31.429688 L 64.570312 80 L 16 128.570312 L 35.429688 148 L 84 99.429688 L 132.570312 148 L 152 128.570312 L 103.429688 80 L 152 31.429688 Z M 132.570312 12 "/>
</g>
</svg>
