<?xml version="1.0" encoding="UTF-8"?>
<svg xmlns="http://www.w3.org/2000/svg" xmlns:xlink="http://www.w3.org/1999/xlink" viewBox="0 0 120 120" width="120px" height="120px">
<g id="surface24032360">
<path style=" stroke:none;fill-rule:nonzero;fill:rgb(100%,100%,100%);fill-opacity:1;" d="M 24 16 C 19.628906 16 16 19.628906 16 24 L 16 59.328125 C 15.929688 59.761719 15.929688 60.199219 16 60.632812 L 16 79.328125 C 15.929688 79.761719 15.929688 80.199219 16 80.632812 L 16 96 C 16 100.371094 19.628906 104 24 104 L 96 104 C 100.371094 104 104 100.371094 104 96 L 104 80.671875 C 104.070312 80.238281 104.070312 79.800781 104 79.367188 L 104 60.671875 C 104.070312 60.238281 104.070312 59.800781 104 59.367188 L 104 24 C 104 19.628906 100.371094 16 96 16 Z M 24 44 L 96 44 L 96 56 L 24 56 Z M 24 64 L 96 64 L 96 76 L 24 76 Z M 24 84 L 96 84 L 96 96 L 24 96 Z M 24 84 "/>
</g>
</svg>
